# xmcd
#
# Track frame offsets:
#	150
#	18573
#	31870
#	63135
#	80428
#	94782
#	109422
#	123651
#	138302
#	155604
#
# Disc length: 2322 seconds
# Revision: 0
# Processed by: cddbd v1.5.2PL0 Copyright (c) Steve Scherf et al.
# Submitted via: dBpowerAMP V12.0
#
DISCID=7f09100a
DTITLE=Wes Lee - Blue Roux
DYEAR=2015
DGENRE=Blues
TTITLE0=Shake
TTITLE1=Howlin'
TTITLE2=Legend of the 12:05
TTITLE3=Rest Your Pony
TTITLE4=Chains That Bind
TTITLE5=Hold on Tight
TTITLE6=Every Night
TTITLE7=House Party
TTITLE8=Goin' Away
TTITLE9=Tell Me
EXTD=
EXTT0=
EXTT1=
EXTT2=
EXTT3=
EXTT4=
EXTT5=
EXTT6=
EXTT7=
EXTT8=
EXTT9=
PLAYORDER=
